<?xml version="1.0" encoding="utf-8"?>
<!-- Generator: Adobe Illustrator 16.0.0, SVG Export Plug-In . SVG Version: 6.00 Build 0)  -->
<!DOCTYPE svg PUBLIC "-//W3C//DTD SVG 1.1//EN" "http://www.w3.org/Graphics/SVG/1.1/DTD/svg11.dtd">
<svg version="1.1" id="Layer_1" xmlns="http://www.w3.org/2000/svg" xmlns:xlink="http://www.w3.org/1999/xlink" x="0px" y="0px"
     width="267.286px" height="111.273px" viewBox="172.318 340.364 267.286 111.273"
     enable-background="new 172.318 340.364 267.286 111.273" xml:space="preserve">
<g>
	<path fill="#2638C4" d="M283.591,396c0,30.755-24.882,55.637-55.636,55.637S172.318,426.755,172.318,396
		c0-30.754,24.882-55.636,55.636-55.636S283.591,365.246,283.591,396"/>
    <g>
		<path fill="#2638C4" d="M422.991,389.818c-6.104-3.168-10.973-5.718-10.973-10.586c0-3.478,2.936-5.564,7.959-5.564
			c5.872,0,11.127,1.932,15.146,4.328V365.4c-4.173-1.777-9.969-3.323-15.146-3.323c-14.682,0-21.25,8.732-21.25,18.236
			c0,11.127,7.495,16.459,15.687,20.786c8.113,4.328,11.204,6.183,11.204,10.818c0,3.941-3.4,6.182-9.118,6.182
			c-7.959,0-13.522-3.632-17.231-6.567V424.9c3.399,2.396,10.74,5.254,17.077,5.254c14.218,0,23.259-7.418,23.259-19.396
			C439.682,398.241,429.096,392.986,422.991,389.818z"/>
        <path fill="#2638C4" d="M314.346,362.618h-17.619v66.764h13.136v-21.25h2.628c16.459,0,26.659-8.731,26.659-22.795
			C339.228,371.118,329.954,362.618,314.346,362.618z M309.863,373.746h3.864c7.727,0,12.673,4.482,12.673,11.359
			c0,7.496-4.56,11.745-12.596,11.745h-3.941V373.746z"/>
        <path fill="#2638C4" d="M381.187,393.45c4.481-3.091,6.646-7.65,6.646-13.755c0-10.509-7.728-17.077-20.246-17.077h-20.399v66.764
			h21.25c16.305,0,23.723-10.509,23.723-20.245C392.236,401.486,387.986,395.536,381.187,393.45z M366.582,373.9
			c5.177,0,8.5,3.168,8.5,8.191c0,5.023-3.632,8.269-9.195,8.269h-5.564v-16.382h6.26V373.9z M360.322,418.255v-17.464h8.346
			c6.646,0,10.587,3.245,10.587,8.654c0,5.796-3.941,8.732-11.823,8.732h-7.109V418.255z"/>
	</g>
    <g>
		<g>
			<path fill="#FFFFFF" d="M268.522,396.541l-6.182,1.236v11.437c0,3.863-3.168,6.877-7.264,6.877h-3.168v13.291h-10.2v-13.291
				h3.168c4.095,0,7.264-3.091,7.264-6.877v-11.437l6.182-1.236c1.313-0.31,2.009-1.777,1.391-2.937l-16.228-30.986h10.123
				l16.228,30.986C270.532,394.764,269.836,396.309,268.522,396.541z"/>
		</g>
        <path fill="#FFFFFF" d="M247.659,393.604l-16.228-30.986h-16.768c-15.223,0-28.205,12.441-27.818,27.741
			c0.232,11.359,7.573,19.859,17.773,23.105v15.918h25.036v-13.291h3.168c4.095,0,7.264-3.091,7.264-6.877v-11.437l6.182-1.236
			C247.659,396.309,248.354,394.764,247.659,393.604z M226.641,391.827c-3.478,0-6.336-2.859-6.336-6.336
			c0-3.477,2.859-6.336,6.336-6.336c3.477,0,6.336,2.859,6.336,6.336C232.977,388.968,230.118,391.827,226.641,391.827z"/>
	</g>
</g>
</svg>
